<?xml version="1.0" encoding="UTF-8"?>
<!DOCTYPE svg PUBLIC "-//W3C//DTD SVG 1.1//EN" "http://www.w3.org/Graphics/SVG/1.1/DTD/svg11.dtd">
<!-- Creator: CorelDRAW 2018 (64 Bit) -->
<svg xmlns="http://www.w3.org/2000/svg" xml:space="preserve" width="150mm" height="150mm" version="1.1" style="shape-rendering:geometricPrecision; text-rendering:geometricPrecision; image-rendering:optimizeQuality; fill-rule:evenodd; clip-rule:evenodd"
viewBox="0 0 15000 15000"
 xmlns:xlink="http://www.w3.org/1999/xlink">
 <defs>
  <style type="text/css">
   <![CDATA[
    .fil11 {fill:#13B4B6}
    .fil7 {fill:#2F9687}
    .fil8 {fill:#356696}
    .fil6 {fill:#393F96}
    .fil9 {fill:#692E8C}
    .fil5 {fill:#962488}
    .fil15 {fill:#B9D32C}
    .fil10 {fill:#C00072}
    .fil4 {fill:#CE0948}
    .fil0 {fill:#D4DE37}
    .fil3 {fill:#E23A11}
    .fil13 {fill:#E24F0E}
    .fil12 {fill:#E50C12}
    .fil2 {fill:#E77800}
    .fil14 {fill:#EB8B00}
    .fil1 {fill:#F7B200}
   ]]>
  </style>
 </defs>
 <g id="Camada_x0020_1">
  <metadata id="CorelCorpID_0Corel-Layer"/>
  <g id="_1746563394128">
   <polygon class="fil0" points="6339.55,13879.81 6425.15,14203.63 5908.09,14681.85 6192.11,13800.04 "/>
   <polygon class="fil1" points="8679,11467.37 8924.25,11892.04 7871.57,12865.76 7937.62,12136.44 "/>
   <polygon class="fil1" points="7378.4,12118.59 7674.7,13047.83 7588.81,13127.31 6714.48,13371.61 6408.78,13127.31 6878.58,11668.84 "/>
   <polygon class="fil2" points="9202.22,10561.15 9215.31,11467.37 8679,11467.37 8860.3,10583.65 "/>
   <polygon class="fil2" points="9637.41,9807.26 9971.99,10386.84 9615.38,11209.52 9519.04,10012.35 9559.2,9841.65 "/>
   <polygon class="fil2" points="7443.93,10112.95 7720.56,9807.26 8378.55,10327.61 8679,11467.37 7732.46,11860.48 6943.49,11467.37 7172.37,10756.67 "/>
   <path class="fil2" d="M6631.46 10620.63l12.34 641.65 -83.05 205.09 -137.56 133.97 -92.67 -133.97c16.89,-244.92 27,-474.83 31.79,-692.59l269.15 -154.15z"/>
   <polygon class="fil3" points="9637.41,9807.26 9559.2,9841.65 9502.56,9807.26 9480.73,9535.96 9591.38,9618.46 "/>
   <polygon class="fil3" points="8679,8147.4 8877.62,8310.59 9158.2,8977.33 9179.9,9014.83 9191.36,9807.26 8679,10069.5 7720.56,9807.26 8080.64,8804.57 "/>
   <polygon class="fil3" points="7665.99,9568.29 7720.56,9807.26 7552.6,9872.95 7478.23,9807.26 7564.99,9537.77 "/>
   <path class="fil3" d="M6762.14 8147.4l538.8 448.71 133.42 715.36 -200.9 495.79 -507.06 148.97 -386.07 -148.97c-21.13,-281.39 -54.76,-533.29 -100.14,-755.97l114.28 -568.45 407.67 -335.44z"/>
   <path class="fil3" d="M2928.51 8147.4l167.59 91.81 12.86 220.87c-408.06,432.42 -638.83,890.96 -490.1,1086.48 -143.07,-59.48 -269.36,-128.02 -380.72,-203.53l148.53 -675.53 541.84 -520.1z"/>
   <polygon class="fil4" points="9637.41,6487.28 10116.62,7317.47 10595.83,8147.4 9643.38,8415.59 9369.01,8147.4 9284.62,7098.41 9406.82,6617.37 "/>
   <polygon class="fil4" points="9167.36,8147.4 8985.73,8260.68 8679,8147.4 8655.15,7473.94 9155.41,7322.13 "/>
   <polygon class="fil4" points="7720.56,6487.28 8131.93,6806.69 8199.76,7317.47 8224.85,7360.92 7906.15,8147.4 7512,8320.16 6762.14,8147.4 7044.72,7132.55 "/>
   <polygon class="fil4" points="8562.67,7543.77 8679,8147.4 8223.04,8409.64 8012.93,8147.4 8251.46,7406.95 "/>
   <path class="fil4" d="M5803.7 6487.28l568.62 699.07 389.82 961.05 -469.71 113.28 -373.43 -113.28c-199.53,-339.32 -452.16,-524.24 -728.78,-597.42l92.59 -453.12 520.89 -609.58z"/>
   <path class="fil4" d="M3886.93 6487.28l526.84 508.2 94.81 568.72c-372.65,96.72 -747.01,318.37 -1066.07,583.2l-272.31 77.33 -241.69 -77.33 318.29 -1014.85 640.13 -645.27z"/>
   <path class="fil4" d="M1624.27 7086.26l345.73 -598.98 616.28 562 342.23 1098.12 -934.67 196.56 -484.53 -196.56c-22.01,-164.75 -23.12,-327.68 -9.83,-480.78 17.22,-199.66 59.72,-392.86 124.79,-580.36z"/>
   <polygon class="fil5" points="10624.77,6487.28 9637.41,6487.28 9604.18,5335.62 10317.62,5309.24 "/>
   <polygon class="fil5" points="10415.95,4928.55 10595.83,4827.43 11272.44,6487.28 10850.16,6487.28 10406.36,5155.62 "/>
   <polygon class="fil5" points="9637.41,6487.28 9362.8,6642.2 9235.43,6487.28 9170.36,5678.3 9525.55,5873.05 "/>
   <polygon class="fil5" points="8679,4827.43 8920.09,5034.07 9130.63,5609.77 9143.33,6487.28 8655.15,6737.63 7720.56,6487.28 8080.62,5532.18 "/>
   <polygon class="fil5" points="6762.14,4827.43 7402.24,5448.9 7720.56,6487.28 6696.58,6785.22 5803.7,6487.28 6008.84,5466.75 "/>
   <polygon class="fil5" points="4775.8,4898.55 4845.31,4827.43 4867.92,4841.91 4872.81,4875.01 4736.15,5016.48 "/>
   <polygon class="fil5" points="4687.09,5101.31 4980.01,5574.85 4883.7,5059.67 4936.2,4984.67 5515.18,5424.85 5803.7,6487.28 4797.63,6701.94 3886.93,6487.28 4151.61,5633.56 "/>
   <path class="fil5" d="M2180.29 6123.4c178.03,-219.06 385.71,-430.61 617.15,-636.22 17.33,-82.76 96.99,-278.8 213.14,-517.51l557.98 461.39 318.37 1056.22 -1006.13 196.56 -910.8 -196.56 40.96 -95.43 169.33 -268.45z"/>
   <polygon class="fil6" points="10271.56,3788.78 10595.83,4827.43 10415.95,4928.55 10296.98,4827.43 9888.98,3603.09 "/>
   <polygon class="fil6" points="9637.41,3167.31 9750.69,3302.31 9859.67,3552.4 10192.06,4827.43 9577.82,5125.36 8679,4827.43 8860.3,3866.38 "/>
   <polygon class="fil6" points="7720.56,3167.31 8426.22,3711.46 8679,4827.43 7637.13,5137.26 6762.14,4827.43 6907.67,3806.63 "/>
   <polygon class="fil6" points="5803.7,3167.31 6485.54,3723.35 6762.14,4827.43 5744.12,5089.67 5046.66,4827.43 5385.15,4345.09 4918.9,4827.43 4845.31,4827.43 4978.92,3878.27 "/>
   <path class="fil6" d="M3987.82 3545.16c-197.69,528.37 -297.21,691.82 -387.45,1165.88 78.91,-251.38 260.36,-680.96 533.13,-1116.48l375.63 289.66 336.18 943.21 -1012.05 250.09 -751.54 -250.09c246.24,-481.31 607.46,-1069.42 906.1,-1282.27z"/>
   <path class="fil7" d="M8510.53 1799.18c118.42,3.1 235.3,10.6 350.13,22.76l547.82 336.73 228.93 1008.64 -934.59 286.04 -982.26 -286.04 217.06 -877.52 572.91 -490.61z"/>
   <path class="fil7" d="M6383.05 2164.1c214.45,-76.55 430.35,-141.47 645.89,-194.48l462.68 332.07 228.94 865.62 -958.42 309.83 -958.44 -309.83 240.89 -627.43 338.46 -375.78z"/>
   <path class="fil7" d="M5342.19 2367.9l251.43 275.44 210.08 523.97 -886.87 160.86 -483.82 -160.86c253.56,-321.47 558.25,-613.46 909.18,-799.41z"/>
   <polygon class="fil8" points="11651.95,3476.63 11649.98,4656.73 10970.6,4656.73 11449.81,3826.55 "/>
   <polygon class="fil8" points="10595.83,4827.43 10116.62,3997.5 9888.98,3603.09 9815.11,3381.45 9859.67,3552.4 9637.41,3167.31 11127.56,3167.31 "/>
   <polygon class="fil9" points="10595.83,4827.43 10406.36,5155.62 10296.98,4827.43 "/>
   <polygon class="fil9" points="10192.06,4827.43 10317.62,5309.24 10116.62,5657.36 9637.41,6487.28 9170.36,5678.3 9123.16,5092 9130.63,5609.77 8679,4827.43 "/>
   <polygon class="fil10" points="9143.33,6487.28 9155.41,7322.13 8679,8147.4 8251.46,7406.95 8426.68,6862.81 8224.85,7360.92 8199.76,7317.47 7720.56,6487.28 "/>
   <polygon class="fil10" points="9284.62,7098.41 9235.43,6487.28 9637.41,6487.28 "/>
   <polygon class="fil7" points="11461.26,2905.32 9971.12,2905.32 10513.92,1964.96 "/>
   <path class="fil11" d="M10116.62 2337.38l-479.21 829.93 -479.21 -829.93 -297.54 -515.44c483.81,51.47 932.7,184.14 1319.53,405.27l-63.57 110.17z"/>
   <polygon class="fil8" points="9637.41,3167.31 9158.2,3997.5 8679,4827.43 8199.76,3997.5 7720.56,3167.31 "/>
   <polygon class="fil9" points="8679,4827.43 8199.76,5657.36 7720.56,6487.28 7241.35,5657.36 6762.14,4827.43 "/>
   <polygon class="fil10" points="7720.56,6487.28 7241.35,7317.47 6762.14,8147.4 6282.94,7317.47 5803.7,6487.28 "/>
   <path class="fil11" d="M8199.76 2337.38l-479.2 829.93 -479.21 -829.93 -212.41 -367.76c503.91,-124.15 1005.59,-183.37 1481.59,-170.44l-310.77 538.2z"/>
   <polygon class="fil8" points="7720.56,3167.31 7241.35,3997.5 6762.14,4827.43 6282.94,3997.5 5803.7,3167.31 "/>
   <polygon class="fil9" points="5803.7,4827.43 6762.14,4827.43 6282.94,5657.36 5803.7,6487.28 5324.52,5657.36 4936.2,4984.67 5046.66,4827.43 "/>
   <polygon class="fil9" points="4872.81,4875.01 4845.31,4827.43 4918.9,4827.43 "/>
   <path class="fil10" d="M5803.7 6487.28l-479.18 830.19 -134.3 232.51c-217.12,-57.42 -448.9,-46.3 -681.64,14.22l-142.47 -246.73 -479.18 -830.19 1916.77 0z"/>
   <path class="fil11" d="M5591.45 2501.35c259.14,-129.57 524.23,-242.07 791.6,-337.25l-100.11 173.28 -479.24 829.93 -461.51 -799.41c102.41,-54.05 208.73,-99.57 318.91,-133.71 55.63,-17.33 -131.69,298.19 -69.65,267.16z"/>
   <path class="fil8" d="M4845.31 3167.31l958.39 0 -479.18 830.19 -479.21 829.93 -479.2 -829.93 -232.61 -402.94c90.03,-143.8 189.99,-288.37 299.51,-427.25l412.3 0z"/>
   <path class="fil9" d="M3886.93 4827.43l958.38 0 -109.16 189.05 -61.97 64.14 12.91 20.69 -320.98 556.05 -479.18 829.92 -479.31 -829.92 -397.04 -687.69c22.45,-46.04 46.19,-93.62 71.14,-142.24l805.21 0z"/>
   <polygon class="fil10" points="3886.93,6487.28 3407.62,7317.47 2928.51,8147.4 2449.2,7317.47 1970,6487.28 "/>
   <path class="fil9" d="M1970 6487.28l-25.09 -43.45c71.17,-108.62 149.85,-215.43 235.38,-320.43l-210.29 363.88z"/>
   <path class="fil10" d="M1970 6487.28l-345.73 598.98c71.45,-206.12 170.28,-405.53 292.76,-598.98l52.97 0z"/>
   <polygon class="fil12" points="11156.5,9395.78 10411.06,9395.78 10836.84,8658.44 "/>
   <polygon class="fil13" points="10719.27,11053.06 10121.74,10018.04 11167.91,10018.04 "/>
   <polygon class="fil14" points="9623.26,12738 8988.94,11639.36 10376.02,11639.36 "/>
   <polygon class="fil12" points="10595.83,8147.4 10116.62,8977.33 9637.41,9807.26 9480.73,9535.96 9369.01,8147.4 "/>
   <polygon class="fil12" points="9179.9,9014.83 9158.2,8977.33 8679,8147.4 9167.36,8147.4 "/>
   <polygon class="fil13" points="9519.04,10012.35 9502.56,9807.26 9637.41,9807.26 "/>
   <polygon class="fil13" points="9191.36,9807.26 9202.22,10561.15 9158.2,10637.44 8679,11467.37 8199.76,10637.44 7720.56,9807.26 "/>
   <polygon class="fil14" points="7720.56,11467.37 8679,11467.37 8199.76,12297.3 7871.57,12865.76 7674.7,13047.83 7241.35,12297.3 6878.58,11668.84 6943.49,11467.37 "/>
   <polygon class="fil15" points="6762.14,13127.31 7588.81,13127.31 6425.15,14203.63 6282.94,13957.26 6192.11,13800.04 6408.78,13127.31 "/>
   <polygon class="fil12" points="8679,8147.4 8199.76,8977.33 7720.56,9807.26 7564.99,9537.77 8012.93,8147.4 "/>
   <polygon class="fil12" points="7906.15,8147.4 7434.36,9311.47 7241.35,8977.33 6762.14,8147.4 "/>
   <polygon class="fil13" points="7720.56,9807.26 7241.35,10637.44 7172.37,10756.67 7478.23,9807.26 "/>
   <path class="fil13" d="M6762.14 9807.26l471.32 0 -589.66 1455.02 -281.49 -487.5c7.78,-356.91 -0.34,-678.12 -21.98,-967.52l421.81 0z"/>
   <path class="fil14" d="M6560.75 11467.37l-294.8 727.52c27.36,-255.01 48.69,-497.34 64.57,-727.52l230.23 0z"/>
   <path class="fil12" d="M6282.94 8977.33l-42.75 73.96c-77.36,-378.88 -187.25,-676.3 -321.19,-903.89l843.14 0 -479.2 829.93z"/>
   <path class="fil12" d="M3108.96 8460.08l-180.45 -312.68 514 0c-120.08,99.57 -232.22,205.09 -333.55,312.68z"/>
   <path class="fil12" d="M2928.51 8147.4l-479.31 829.93 -211.06 365.7c-468.63,-318.37 -670.98,-763.73 -728.83,-1195.63l1419.2 0z"/>
   <path class="fil5" d="M1970 6487.28l-52.97 0c9.15,-14.48 18.41,-28.96 27.88,-43.45l25.09 43.45z"/>
   <polygon class="fil6" points="14320.18,5134.41 13473.99,5134.41 13960.57,4291.81 "/>
   <polygon class="fil15" points="12111.42,14342.67 11507.09,13295.98 12884.44,13295.98 "/>
   <polygon class="fil14" points="11568.62,12970.25 11178.25,12294.2 10787.85,11617.89 12168.55,11856.86 "/>
   <polygon class="fil0" points="10923.94,13833.59 9386.78,13833.59 10155.33,12502.39 "/>
   <path class="fil3" d="M12694.3 7538.6c80.61,430.35 163.1,839.49 253.79,1217.34l-956.59 0 617.83 -1070.19 84.97 -147.15z"/>
   <polygon class="fil12" points="11268.77,8610.6 10783.9,7770.58 10298.98,6930.83 12310.13,6930.83 "/>
   <polygon class="fil2" points="12353.24,9846.05 13179.48,11277.02 11383.44,11525.82 11868.39,10686.07 "/>
   <path class="fil6" d="M13368.14 4507.51l-1287.38 -494.24 1061.68 -859.41c80.06,450.27 154.26,901.57 225.7,1353.65z"/>
   <polygon class="fil9" points="13186.69,5515.89 12712.85,6071.67 12239,6627.46 11838.62,5806.32 11438.27,4985.19 12312.49,5250.54 "/>
   <polygon class="fil7" points="11822.93,3229.12 11452.16,1961.86 12469.79,2150.39 "/>
   <path class="fil8" d="M13027.39 2640.49l-302.94 -524.49 611.6 0c-101.45,175.6 -203.92,350.95 -308.66,524.49z"/>
   <polygon class="fil2" points="13897.08,9365.52 13782.56,9807.26 13668,10249.25 13422.1,9864.67 13176.17,9480.09 13536.63,9422.68 "/>
   <polygon class="fil15" points="8752.32,14411.41 7314.98,13854.2 8683.91,12753.26 "/>
   <path class="fil3" d="M13644.22 7930.93l-84.97 -147.16 -617.8 -1070.19 956.55 0c-90.69,377.85 -173.16,787 -253.78,1217.35z"/>
  </g>
 </g>
</svg>
